PathFileType	4	(X/Y/Z)	C:/Users/opensim2020/Desktop/walking_exp_matlab/subject03_walking13_straight_03.trc																																																																																																																																								
DataRate	CameraRate	NumFrames	NumMarkers	Units	OrigDataRate	OrigDataStartFrame	OrigNumFrames																																																																																																																																				
100	100	5	46	mm	100	1627	209																																																																																																																																				
Frame#	Time	LFHD			RFHD			LBHD			RBHD			C7			T10			CLAV			STRN			RBAK			LSHO			LUPA			LELB			LFRM			LWRA			LWRB			LFIN			RSHO			RUPA			RELB			RFRM			RWRA			RWRB			RFIN			LASI			RASI			LPSI			RPSI			LTHI			LKNE			LTIB			LANK			LHEE			LTOE			RTHI			RKNE			RTIB			RANK			RHEE			RTOE			*39			*40			*41			*42			*43			*44			*45		
		X1	Y1	Z1	X2	Y2	Z2	X3	Y3	Z3	X4	Y4	Z4	X5	Y5	Z5	X6	Y6	Z6	X7	Y7	Z7	X8	Y8	Z8	X9	Y9	Z9	X10	Y10	Z10	X11	Y11	Z11	X12	Y12	Z12	X13	Y13	Z13	X14	Y14	Z14	X15	Y15	Z15	X16	Y16	Z16	X17	Y17	Z17	X18	Y18	Z18	X19	Y19	Z19	X20	Y20	Z20	X21	Y21	Z21	X22	Y22	Z22	X23	Y23	Z23	X24	Y24	Z24	X25	Y25	Z25	X26	Y26	Z26	X27	Y27	Z27	X28	Y28	Z28	X29	Y29	Z29	X30	Y30	Z30	X31	Y31	Z31	X32	Y32	Z32	X33	Y33	Z33	X34	Y34	Z34	X35	Y35	Z35	X36	Y36	Z36	X37	Y37	Z37	X38	Y38	Z38	X39	Y39	Z39	X40	Y40	Z40	X41	Y41	Z41	X42	Y42	Z42	X43	Y43	Z43	X44	Y44	Z44	X45	Y45	Z45	X46	Y46	Z46
																																																																																																																																											
1	0	-1189.08423	1589.89075	-1013.54614	-1212.92163	1581.80676	-883.05426	-1307.42969	1527.47302	-1035.33215	-1326.43311	1519.72766	-905.76996	-1327.9552	1375.6001	-1001.54785	-1376.42578	1071.38037	-1015.90564	-1202.83667	1301.02869	-980.85486	-1165.48132	1132.74158	-989.38666	-1393.26782	1200.6814	-927.00476	-1218.89978	1347.29565	-1139.84094	-1186.1626	1158.88342	-1218.68713	-1149.08167	1041.97131	-1227.57007	-1078.60938	937.55884	-1200.79736	-1023.30182	844.30603	-1145.72754	-1029.98438	834.25024	-1199.55432	-977.93616	775.31573	-1172.43701	-1281.52222	1320.09937	-831.1629	-1343.47534	1106.81445	-767.07166	-1363.15833	995.03076	-752.91376	-1397.20935	861.96594	-747.46515	-1398.82104	758.71857	-776.26752	-1437.23083	769.12256	-738.47687	-1448.43225	693.63086	-748.78918	-1228.93225	883.37555	-1108.36987	-1242.55432	907.93713	-875.96259	-1389.02258	930.77795	-1069.49426	-1397.66919	945.7179	-923.8866	-1365.47168	599.92395	-1147.52234	-1428.32642	433.66299	-1112.34521	-1542.49951	272.16727	-1129.65332	-1637.14014	76.0262	-1099.86243	-1687.1073	51.06957	-1073.13	-1495.4574	28.60062	-1062.2229	-1209.78894	633.59552	-820.88232	-1116.51575	483.84479	-866.36536	-1117.07959	290.60886	-865.20569	-1098.48145	75.4995	-915.71631	-1136.35352	37.32263	-969.79443	-956.53058	61.86447	-932.13287	-1288.77185	1632.77295	-975.33069	NaN	NaN	NaN	NaN	NaN	NaN	NaN	NaN	NaN	NaN	NaN	NaN	NaN	NaN	NaN	NaN	NaN	NaN
2	0.01	-1179.90845	1588.82544	-1012.99554	-1203.91687	1580.75671	-882.81165	-1298.26416	1526.3147	-1035.14941	-1317.38843	1518.50549	-905.64526	-1318.69299	1374.49207	-1001.15991	-1363.49268	1068.38708	-1017.59442	-1193.58289	1299.83398	-980.66003	-1156.23291	1131.58325	-989.65112	-1383.95081	1199.60315	-926.62579	-1210.06152	1346.29529	-1139.89453	-1179.5896	1157.27905	-1219.26624	-1143.50574	1040.02832	-1227.61975	-1073.46606	935.42859	-1200.57422	-1018.52612	842.28247	-1145.16479	-1025.23523	831.94299	-1198.83411	-973.46265	772.94629	-1171.427	-1271.95654	1318.81152	-830.96912	-1333.61279	1105.255	-767.38019	-1353.2832	993.42401	-753.53394	-1387.37158	860.30896	-748.37823	-1389.07324	757.01294	-777.36102	-1427.26721	767.35638	-739.64703	-1439.55188	692.17444	-750.39526	-1219.49341	882.55927	-1108.52661	-1232.73254	907.20581	-876.33118	-1379.80811	928.65387	-1069.50647	-1388.17078	944.61578	-924.1593	-1357.26563	598.90955	-1147.6156	-1421.15857	432.68469	-1112.67175	-1537.84631	272.92322	-1129.74585	-1636.54468	78.19984	-1099.92432	-1686.18799	54.81384	-1073.15503	-1494.9231	28.59758	-1062.20325	-1199.83569	632.7049	-820.86884	-1106.07654	483.44412	-866.89923	-1107.51318	290.08078	-864.89441	-1090.66833	74.78422	-915.13898	-1128.64246	36.36848	-968.74017	-948.57568	60.45302	-932.19891	NaN	NaN	NaN	NaN	NaN	NaN	NaN	NaN	NaN	NaN	NaN	NaN	NaN	NaN	NaN	NaN	NaN	NaN	NaN	NaN	NaN
3	0.02	-1170.55823	1587.89124	-1012.42004	-1194.7699	1579.68359	-882.51721	-1289.03674	1525.41858	-1034.98694	-1308.28711	1517.47461	-905.37445	-1309.37952	1373.67139	-1000.74298	-1354.08569	1067.47034	-1017.61749	-1184.29614	1298.96692	-981.0105	-1146.71033	1130.73999	-989.6239	-1374.45251	1198.67041	-926.06427	-1201.09167	1345.4082	-1139.88843	-1172.76379	1155.84863	-1219.25024	-1137.9198	1038.29272	-1227.7323	-1068.47925	933.37262	-1200.37964	-1013.9502	840.0777	-1144.6394	-1020.84552	829.57513	-1198.28137	-969.43683	770.34558	-1170.573	-1262.06567	1317.51721	-830.65338	-1323.39417	1103.78906	-767.59143	-1342.83533	991.81421	-754.03809	-1376.80957	858.67859	-749.29498	-1378.67371	755.46033	-778.47644	-1416.72559	765.65771	-740.72455	-1429.1532	690.52496	-751.98584	-1210.43811	881.18878	-1109.13318	-1222.45544	906.50836	-876.64154	-1370.27148	927.06085	-1069.60083	-1378.20508	943.60217	-924.3432	-1348.5415	597.98206	-1147.58801	-1413.29724	431.93192	-1113.11011	-1532.76196	273.9834	-1129.78137	-1634.94055	81.26379	-1100.08508	-1684.93396	58.72315	-1073.32446	-1494.80286	28.42217	-1062.16248	-1189.63428	631.83801	-820.82617	-1096.22961	482.73401	-866.94635	-1098.97058	289.06296	-864.67377	-1084.10046	73.59771	-914.61401	-1122.65271	35.37448	-968.26874	-942.23956	58.25266	-932.43781	-1270.56787	1630.32703	-973.32599	NaN	NaN	NaN	NaN	NaN	NaN	NaN	NaN	NaN	NaN	NaN	NaN	NaN	NaN	NaN	NaN	NaN	NaN
4	0.03	-1161.71667	1587.49292	-1012.76666	-1185.56128	1578.9082	-882.16107	-1279.68408	1524.6488	-1034.70862	-1298.83838	1516.56567	-905.16052	-1300.0531	1372.97412	-1000.28796	-1347.98816	1068.33594	-1016.05762	-1174.64392	1298.08533	-980.56781	-1136.99829	1130.00708	-989.53882	-1364.79749	1197.87756	-925.4325	-1192.00684	1344.7168	-1139.82886	-1165.88928	1154.66833	-1219.32007	-1132.41284	1036.59045	-1227.78955	-1063.74573	931.2785	-1200.25684	-1009.63324	837.79102	-1144.35266	-1016.80817	827.10278	-1197.91699	-965.83923	767.50006	-1170.0437	-1252.14783	1316.56201	-830.15717	-1312.86426	1102.43506	-767.60706	-1331.99536	990.31451	-754.48895	-1365.58105	857.11615	-750.1123	-1367.45129	753.94989	-779.80042	-1405.37048	764.00812	-741.67377	-1417.82092	688.6557	-753.5188	-1200.38477	880.20111	-1109.49121	-1211.8429	906.0564	-876.81158	-1360.26526	925.52863	-1069.56934	-1367.85938	942.68762	-924.40503	-1339.33569	597.12738	-1147.33716	-1405.22485	431.27448	-1113.28052	-1527.46753	275.2038	-1129.61243	-1633.86731	83.93295	-1100.11011	-1683.64746	63.36502	-1073.09045	-1494.60486	28.3453	-1062.24683	-1179.27686	630.96478	-821.39594	-1086.49695	481.76166	-867.38446	-1091.05103	287.78482	-864.77832	-1078.77051	71.78685	-914.60083	-1118.15723	34.19367	-967.63721	-937.36499	55.19747	-933.00757	-1261.39966	1629.88025	-974.29041	NaN	NaN	NaN	NaN	NaN	NaN	NaN	NaN	NaN	NaN	NaN	NaN	NaN	NaN	NaN	NaN	NaN	NaN
5	0.04	-1151.94141	1586.67981	-1011.7934	-1176.11646	1578.32385	-881.78717	-1270.2312	1524.07349	-1034.37305	-1289.33643	1515.86963	-904.84076	-1290.41797	1372.05371	-999.6153	-1334.30762	1065.78406	-1017.56079	-1164.9707	1297.5658	-980.31213	-1126.86035	1129.61353	-989.52185	-1354.83667	1197.14819	-924.7738	-1182.88269	1344.19751	-1139.68933	-1158.94275	1153.52905	-1219.24426	-1126.85608	1035.04211	-1227.65845	-1059.04089	929.12213	-1200.20984	-1005.677	835.36719	-1144.29956	-1013.08844	824.62823	-1197.83789	-962.76874	764.44354	-1169.78235	-1242.11096	1315.71924	-829.72626	-1301.94177	1101.23999	-767.5191	-1320.76782	988.97644	-754.7793	-1353.87256	855.56476	-750.66614	-1355.05859	752.42157	-781.23181	-1393.1405	762.27899	-742.57129	-1405.67615	686.70428	-755.49628	-1189.89722	879.29425	-1109.46338	-1200.63623	905.72583	-876.89307	-1349.86975	924.20978	-1069.31543	-1357.12512	941.84558	-924.29022	-1329.53735	596.4397	-1147.02112	-1396.24866	430.70963	-1113.41406	-1521.55359	276.78589	-1129.44287	-1632.67078	87.96576	-1099.1571	-1681.75928	68.31071	-1073.09778	-1494.20313	28.30641	-1062.19946	-1168.7533	630.25745	-821.97809	-1077.27539	480.26605	-867.88104	-1084.1394	285.90845	-864.94543	-1074.97314	69.63251	-914.62109	-1115.67822	33.1829	-967.56696	-934.07422	50.86199	-933.76971	NaN	NaN	NaN	NaN	NaN	NaN	NaN	NaN	NaN	NaN	NaN	NaN	NaN	NaN	NaN	NaN	NaN	NaN	NaN	NaN	NaN
